<svg xmlns="http://www.w3.org/2000/svg" width="1207.75" height="1177.928"><path d="M605.29 7.804c329.03 0 595.84 267.42 595.84 597.324 0 263.918-170.726 487.824-407.471 566.81-29.778 5.529-40.71-12.96-40.71-28.737 0-14.244.552-61.298.808-111.21 165.763 36.133 200.741-70.479 200.741-70.479 27.105-69.043 66.158-87.402 66.158-87.402 54.06-37.074-4.076-36.312-4.076-36.312-59.832 4.204-91.337 61.556-91.337 61.556-53.143 91.319-139.389 64.918-173.39 49.655-5.348-38.597-20.79-64.968-37.83-79.874C846.367 854.03 985.49 802.812 985.49 573.93c0-65.216-23.276-118.502-61.391-160.333 6.186-15.055 26.58-75.8-5.773-158.078 0 0-50.034-16.054-163.898 61.229-47.528-13.235-98.5-19.872-149.137-20.1-50.637.228-101.649 6.865-149.266 20.1-113.725-77.283-163.691-61.229-163.691-61.229-32.432 82.278-12.028 143.023-5.841 158.078-38.205 41.831-61.323 95.117-61.323 160.333 0 229.426 139.39 279.942 272.069 294.73-21.372 18.537-40.415 54.888-40.415 110.618 0 79.914.69 144.24.69 163.923 0 15.896-10.724 34.521-40.927 28.656-236.617-79.073-407.126-302.9-407.126-566.73 0-329.904 266.77-597.323 595.83-597.323" fill="#fff" fill-rule="evenodd" stroke="#fff" stroke-width=".988"/></svg>