<svg xmlns="http://www.w3.org/2000/svg" height="1400" width="1400"><path fill="#fff" d="M1400 1400H0V0h1400z"/><g transform="rotate(180 700 700)"><linearGradient gradientTransform="matrix(0 1 1 0 1358.12 1624.127)" y2="-415.86" x2="-1095.168" y1="-531.93" x1="-1019.367" gradientUnits="userSpaceOnUse" id="a"><stop offset="0" stop-color="#ededee"/><stop offset=".383" stop-color="#ebeced"/><stop offset=".559" stop-color="#e5e6e7"/><stop offset=".694" stop-color="#dadbdd"/><stop offset=".807" stop-color="#cbcdce"/><stop offset=".906" stop-color="#b7b9bc"/><stop offset=".995" stop-color="#a0a2a5"/><stop offset="1" stop-color="#9fa1a4"/></linearGradient><path fill="url(#a)" d="M823.44 600h115.466l-57.732-100.001z"/><linearGradient gradientTransform="matrix(0 1 1 0 1358.12 1624.127)" y2="-439.209" x2="-1596.13" y1="-544.931" x1="-1561.188" gradientUnits="userSpaceOnUse" id="b"><stop offset=".188" stop-color="#cbccce"/><stop offset=".234" stop-color="#d0d1d3"/><stop offset=".395" stop-color="#dcdedf"/><stop offset=".58" stop-color="#e4e5e6"/><stop offset=".85" stop-color="#e6e7e8"/></linearGradient><path fill="url(#b)" d="M881.192 100.004L938.923.003H823.457z"/><path fill="#dadbdc" d="M1112.119 100.004L1054.384.003l-57.732 100.001L1054.384 200z"/><path fill="#e6e7e8" d="M1285.311 1000.014h114.673v-1.372l-56.936-98.624h-115.472z"/><path fill="#ededee" d="M1399.984 800.017h-114.673l57.737 100.001h56.936z"/><path fill="#b1b3b6" d="M1399.984 866.224v-66.207h-114.673z"/><path fill="#fff" d="M1399.984 798.633v-98.617h-56.936z"/><linearGradient gradientTransform="matrix(0 1 1 0 1358.12 1624.127)" y2="103.211" x2="-810.983" y1="-31.156" x1="-950.769" gradientUnits="userSpaceOnUse" id="c"><stop offset="0" stop-color="#dadbdc"/><stop offset=".322" stop-color="#d8d9db"/><stop offset=".471" stop-color="#d2d3d5"/><stop offset=".585" stop-color="#c7c9cb"/><stop offset=".68" stop-color="#b8babc"/><stop offset=".763" stop-color="#a5a7aa"/><stop offset=".812" stop-color="#97999c"/></linearGradient><path fill="url(#c)" d="M1399.984 798.633v-98.617h-56.936z"/><path fill="#cbccce" d="M1285.311 800.017l57.737-100.001H1227.58z"/><linearGradient gradientTransform="matrix(0 1 1 0 1358.12 1624.127)" y2="-143.066" x2="-664.656" y1="-234.858" x1="-717.764" gradientUnits="userSpaceOnUse" id="d"><stop offset="0" stop-color="#ededee"/><stop offset=".383" stop-color="#ebeced"/><stop offset=".559" stop-color="#e5e6e7"/><stop offset=".694" stop-color="#dadbdd"/><stop offset=".807" stop-color="#cbcdce"/><stop offset=".906" stop-color="#b7b9bc"/><stop offset=".995" stop-color="#a0a2a5"/><stop offset="1" stop-color="#9fa1a4"/></linearGradient><path fill="url(#d)" d="M1285.311 1000.014l-57.735-99.996h-115.467l57.736 99.996z"/><linearGradient gradientTransform="matrix(0 1 1 0 1358.12 1624.127)" y2="21.337" x2="-969.518" y1="-67.305" x1="-1020.804" gradientUnits="userSpaceOnUse" id="e"><stop offset="0" stop-color="#ededee"/><stop offset=".383" stop-color="#ebeced"/><stop offset=".559" stop-color="#e5e6e7"/><stop offset=".694" stop-color="#dadbdd"/><stop offset=".807" stop-color="#cbcdce"/><stop offset=".906" stop-color="#b7b9bc"/><stop offset=".995" stop-color="#a0a2a5"/><stop offset="1" stop-color="#9fa1a4"/></linearGradient><path fill="url(#e)" d="M1399.984 600.016h-114.668l57.736 100 56.932-98.618z"/><linearGradient gradientTransform="matrix(0 1 1 0 1358.12 1624.127)" y2="-290.677" x2="-691.276" y1="-340.211" x1="-815.764" gradientUnits="userSpaceOnUse" id="f"><stop offset="0" stop-color="#ededee"/><stop offset=".383" stop-color="#ebeced"/><stop offset=".559" stop-color="#e5e6e7"/><stop offset=".694" stop-color="#dadbdd"/><stop offset=".807" stop-color="#cbcdce"/><stop offset=".906" stop-color="#b7b9bc"/><stop offset=".995" stop-color="#a0a2a5"/><stop offset="1" stop-color="#9fa1a4"/></linearGradient><path fill="url(#f)" d="M1112.113 900.018h-115.47l57.735-100.001z"/><path fill="#dadbdc" d="M1169.845 1000.014l-57.736-99.996H996.643l57.735 99.996z"/><linearGradient gradientTransform="matrix(0 1 1 0 1358.12 1624.127)" y2="-281.286" x2="-662.316" y1="-248.699" x1="-722.276" gradientUnits="userSpaceOnUse" id="g"><stop offset=".242" stop-color="#fff"/><stop offset=".556" stop-color="#fcfcfc"/><stop offset=".701" stop-color="#f4f4f5"/><stop offset=".812" stop-color="#e9eaeb"/><stop offset=".905" stop-color="#dadbdc"/><stop offset=".986" stop-color="#c6c8ca"/><stop offset="1" stop-color="#c2c4c6"/></linearGradient><path fill="url(#g)" d="M996.643 900.018l173.202 99.996-57.736-99.996z"/><path fill="#ededee" d="M1054.378 1000.014l-57.735-99.996H881.174l57.738 99.996z"/><linearGradient y2="1030.337" x2="996.644" y1="895.136" x1="996.644" gradientUnits="userSpaceOnUse" id="h"><stop offset=".043" stop-color="#b1b3b6"/><stop offset=".303" stop-color="#afb1b4"/><stop offset=".49" stop-color="#a8aaac"/><stop offset=".653" stop-color="#9b9da0"/><stop offset=".803" stop-color="#8a8c8f"/><stop offset=".943" stop-color="#757779"/><stop offset=".957" stop-color="#737577"/></linearGradient><path fill="url(#h)" d="M938.912 1000.014h115.466l-57.735-99.996z"/><path fill="#cbccce" d="M1054.378 1000.014h115.467l-57.736 99.999z"/><linearGradient y2="1016.381" x2="1342.648" y1="892.055" x1="1342.648" gradientUnits="userSpaceOnUse" id="i"><stop offset="0" stop-color="#dadbdc"/><stop offset=".365" stop-color="#d8d9db"/><stop offset=".534" stop-color="#d2d3d5"/><stop offset=".662" stop-color="#c7c9cb"/><stop offset=".77" stop-color="#b8babc"/><stop offset=".864" stop-color="#a5a7aa"/><stop offset=".919" stop-color="#97999c"/></linearGradient><path fill="url(#i)" d="M1399.984 998.642l-56.936-98.624-57.737 99.996h114.673z"/><path fill="#ededee" d="M1399.984 1398.628l-56.936-98.624-57.737 99.996h114.673z"/><path fill="#cbccce" d="M881.172 1100.003l-57.734-100.001h-115.47l57.736 100.001z"/><path fill="#ededee" d="M534.783 1100.013l173.2 100.002-57.732-100.002z"/><path fill="#ededee" opacity=".5" d="M188.383 1099.997h115.472l57.736-99.999z"/><path fill="#ededee" d="M938.917 1400l57.735-99.999H881.188L823.451 1400zM650.248 700.016l57.735-100H592.519l-57.736 100z"/><linearGradient gradientTransform="matrix(0 1 1 0 1358.12 1624.127)" y2="-767.592" x2="-958.172" y1="-666.13" x1="-1010.583" gradientUnits="userSpaceOnUse" id="j"><stop offset="0" stop-color="#dadbdc"/><stop offset=".365" stop-color="#d8d9db"/><stop offset=".534" stop-color="#d2d3d5"/><stop offset=".662" stop-color="#c7c9cb"/><stop offset=".77" stop-color="#b8babc"/><stop offset=".864" stop-color="#a5a7aa"/><stop offset=".919" stop-color="#97999c"/></linearGradient><path fill="url(#j)" d="M592.519 600.016l57.729 100 57.735-100z"/><linearGradient y2="766.218" x2="792.525" y1="727.218" x1="658.525" gradientUnits="userSpaceOnUse" id="k"><stop offset="0" stop-color="#fff"/><stop offset=".236" stop-color="#f7f8f8"/><stop offset=".539" stop-color="#eaebeb"/><stop offset=".877" stop-color="#d4d5d7"/><stop offset=".995" stop-color="#cbccce"/></linearGradient><path fill="url(#k)" d="M650.256 700.016l57.733 100.001 57.736-100.001z"/><linearGradient y2="766.218" x2="561.606" y1="727.218" x1="427.606" gradientUnits="userSpaceOnUse" id="l"><stop offset="0" stop-color="#fff"/><stop offset=".236" stop-color="#f7f8f8"/><stop offset=".539" stop-color="#eaebeb"/><stop offset=".877" stop-color="#d4d5d7"/><stop offset=".995" stop-color="#cbccce"/></linearGradient><path fill="url(#l)" d="M419.337 700.016l57.734 100.001 57.735-100.001z"/><path fill="#e6e7e8" d="M477.058 200.006l-57.736-99.999h115.472z"/><linearGradient y2="592.216" x2="606.23" y1="645.216" x1="514.231" gradientUnits="userSpaceOnUse" id="m"><stop offset="0" stop-color="#fff"/><stop offset=".236" stop-color="#f7f8f8"/><stop offset=".539" stop-color="#eaebeb"/><stop offset=".877" stop-color="#d4d5d7"/><stop offset=".995" stop-color="#cbccce"/></linearGradient><path fill="url(#m)" d="M534.764 700.016l-57.733-100H592.5z"/><linearGradient y2="692.216" x2="317.583" y1="745.216" x1="225.583" gradientUnits="userSpaceOnUse" id="n"><stop offset="0" stop-color="#fff"/><stop offset=".236" stop-color="#f7f8f8"/><stop offset=".539" stop-color="#eaebeb"/><stop offset=".877" stop-color="#d4d5d7"/><stop offset=".995" stop-color="#cbccce"/></linearGradient><path fill="url(#n)" d="M246.118 800.016l-57.733-100h115.469z"/><linearGradient gradientTransform="matrix(-1 0 0 1 2339.74 0)" y2="1292.199" x2="1241.351" y1="1345.199" x1="1149.351" gradientUnits="userSpaceOnUse" id="o"><stop offset="0" stop-color="#fff"/><stop offset=".236" stop-color="#f7f8f8"/><stop offset=".539" stop-color="#eaebeb"/><stop offset=".877" stop-color="#d4d5d7"/><stop offset=".995" stop-color="#cbccce"/></linearGradient><path fill="url(#o)" d="M1169.855 1399.998l57.734-100H1112.12z"/><linearGradient gradientTransform="matrix(-1 0 0 1 2339.74 0)" y2="1192.367" x2="1068.265" y1="1245.367" x1="976.265" gradientUnits="userSpaceOnUse" id="p"><stop offset="0" stop-color="#fff"/><stop offset=".236" stop-color="#f7f8f8"/><stop offset=".539" stop-color="#eaebeb"/><stop offset=".877" stop-color="#d4d5d7"/><stop offset=".995" stop-color="#cbccce"/></linearGradient><path fill="url(#p)" d="M1400 1200h-114.698l57.735 100 56.963-98.665z"/><linearGradient y2="1192.199" x2="490.78" y1="1245.199" x1="398.781" gradientUnits="userSpaceOnUse" id="q"><stop offset="0" stop-color="#fff"/><stop offset=".236" stop-color="#f7f8f8"/><stop offset=".539" stop-color="#eaebeb"/><stop offset=".877" stop-color="#d4d5d7"/><stop offset=".995" stop-color="#cbccce"/></linearGradient><path fill="url(#q)" d="M419.315 1300l-57.733-100H477.05z"/><linearGradient y2="424.737" x2="611.816" y1="357.241" x1="568.318" gradientUnits="userSpaceOnUse" id="r"><stop offset="0" stop-color="#fff"/><stop offset=".236" stop-color="#f7f8f8"/><stop offset=".539" stop-color="#eaebeb"/><stop offset=".877" stop-color="#d4d5d7"/><stop offset=".995" stop-color="#cbccce"/></linearGradient><path fill="url(#r)" d="M650.248 300.002l-173.19 100h115.466z"/><linearGradient y2="884.205" x2="528.479" y1="942.206" x1="559.48" gradientUnits="userSpaceOnUse" id="s"><stop offset=".197" stop-color="#fff"/><stop offset=".368" stop-color="#f7f7f8"/><stop offset=".596" stop-color="#e9eaea"/><stop offset=".854" stop-color="#d2d3d5"/><stop offset="1" stop-color="#c2c4c6"/></linearGradient><path fill="url(#s)" d="M477.052 1000.014l173.202-100.002H534.788z"/><linearGradient y2="1064.443" x2="332.72" y1="1217.619" x1="332.72" gradientUnits="userSpaceOnUse" id="t"><stop offset="0" stop-color="#ededee"/><stop offset=".383" stop-color="#ebeced"/><stop offset=".559" stop-color="#e5e6e7"/><stop offset=".694" stop-color="#dadbdd"/><stop offset=".807" stop-color="#cbcdce"/><stop offset=".906" stop-color="#b7b9bc"/><stop offset=".995" stop-color="#a0a2a5"/><stop offset="1" stop-color="#9fa1a4"/></linearGradient><path fill="url(#t)" d="M246.119 1200.015l173.201-100.002H303.855z"/><path fill="#dadbdc" opacity=".5" d="M1285.313 1000.014l-57.735-99.996-57.731 99.996 57.731 99.999z"/><linearGradient gradientTransform="matrix(0 1 1 0 1358.12 1624.127)" y2="-67.455" x2="-1428.802" y1="-2.946" x1="-1275.594" gradientUnits="userSpaceOnUse" id="u"><stop offset="0" stop-color="#dadbdc"/><stop offset=".322" stop-color="#d8d9db"/><stop offset=".471" stop-color="#d2d3d5"/><stop offset=".585" stop-color="#c7c9cb"/><stop offset=".68" stop-color="#b8babc"/><stop offset=".763" stop-color="#a5a7aa"/><stop offset=".812" stop-color="#97999c"/></linearGradient><path fill="url(#u)" d="M1399.984 200.455l-172.404 99.547 57.736 100 114.668-198.637z"/><path fill="#dadbdc" d="M881.174 1100.003V900.002l-57.734 100z"/><linearGradient gradientTransform="matrix(0 1 1 0 1358.12 1624.127)" y2="-592.396" x2="-827.779" y1="-592.396" x1="-951.26" gradientUnits="userSpaceOnUse" id="v"><stop offset=".091" stop-color="#dadbdc"/><stop offset=".208" stop-color="#dadbdc" stop-opacity=".871"/><stop offset="1" stop-color="#dadbdc" stop-opacity="0"/></linearGradient><path fill="url(#v)" d="M707.989 800.017l57.734-100.001 57.734 100.001z"/><linearGradient gradientTransform="matrix(0 1 1 0 1358.12 1624.127)" y2="-717.344" x2="-488.111" y1="-605.351" x1="-548.139" gradientUnits="userSpaceOnUse" id="w"><stop offset="0" stop-color="#dadbdc"/><stop offset=".365" stop-color="#d8d9db"/><stop offset=".534" stop-color="#d2d3d5"/><stop offset=".662" stop-color="#c7c9cb"/><stop offset=".77" stop-color="#b8babc"/><stop offset=".864" stop-color="#a5a7aa"/><stop offset=".919" stop-color="#97999c"/></linearGradient><path fill="url(#w)" d="M707.968 1199.999v-199.997l-57.736 99.995z"/><linearGradient gradientTransform="matrix(0 1 1 0 1358.12 1624.127)" y2="7.927" x2="-1232.866" y1="-83.46" x1="-1129.385" gradientUnits="userSpaceOnUse" id="x"><stop offset=".28" stop-color="#cbccce"/><stop offset=".319" stop-color="#d0d1d3"/><stop offset=".457" stop-color="#dcdedf"/><stop offset=".618" stop-color="#e4e5e6"/><stop offset=".85" stop-color="#e6e7e8"/></linearGradient><path fill="url(#x)" d="M1399.984 400.002h-114.677l57.729 99.997 56.948-98.632z"/><path fill="#ededee" d="M1399.984 398.646v-98.628h-56.942z"/><path fill="#b1b3b6" d="M1399.984 198.637V1.368l-56.948 98.633z"/><path fill="#e6e7e8" d="M1112.109 300.002L1054.378 200l-57.735 100.002 57.735 100zM707.992 600l57.733-100.001H650.256z"/><path fill="#b1b3b6" d="M996.643 300.002h115.466L1054.378 200z"/><path fill="#fff" d="M1169.845 1000.014h115.466l-57.735-99.996z"/><path fill="#dadbdc" opacity=".4" d="M1285.311 1200.015l-57.735-100.002h-115.467l57.736 100.002z"/><path fill="#dadbdc" d="M130.654 1200.015l57.732-100.002H72.919z"/><linearGradient gradientTransform="matrix(0 1 1 0 1358.12 1624.127)" y2="-169.791" x2="-479.606" y1="-114.06" x1="-450.102" gradientUnits="userSpaceOnUse" id="y"><stop offset=".167" stop-color="#ededee"/><stop offset=".485" stop-color="#ebeced"/><stop offset=".633" stop-color="#e5e6e7"/><stop offset=".745" stop-color="#dadbdd"/><stop offset=".84" stop-color="#cbcdce"/><stop offset=".922" stop-color="#b7b9bc"/><stop offset=".996" stop-color="#a0a2a5"/><stop offset="1" stop-color="#9fa1a4"/></linearGradient><path fill="url(#y)" d="M1169.845 1200.018h115.466l-57.735-100.002z"/><linearGradient gradientTransform="matrix(0 1 1 0 1358.12 1624.127)" y2="-72.806" x2="-1250.311" y1="-72.806" x1="-1128.879" gradientUnits="userSpaceOnUse" id="z"><stop offset=".129" stop-color="#ededee"/><stop offset=".295" stop-color="#eaebeb"/><stop offset=".45" stop-color="#e0e1e2"/><stop offset=".6" stop-color="#d1d2d4"/><stop offset=".747" stop-color="#bbbdbf"/><stop offset=".891" stop-color="#9fa1a4"/><stop offset=".892" stop-color="#9fa1a4"/></linearGradient><path fill="url(#z)" d="M1227.58 500.02h115.468l-57.737-100.002z"/><path fill="#fff" d="M1399.984 1300.001v-98.638l-56.948 98.638z"/><linearGradient gradientTransform="matrix(0 1 1 0 1358.12 1624.127)" y2="-206.316" x2="-1249.514" y1="-250.566" x1="-1350.119" gradientUnits="userSpaceOnUse" id="A"><stop offset=".242" stop-color="#fff"/><stop offset=".556" stop-color="#fcfcfc"/><stop offset=".701" stop-color="#f4f4f5"/><stop offset=".812" stop-color="#e9eaeb"/><stop offset=".905" stop-color="#dadbdc"/><stop offset=".986" stop-color="#c6c8ca"/><stop offset="1" stop-color="#c2c4c6"/></linearGradient><path fill="url(#A)" d="M1054.378 400.002l173.202-100h-115.471z"/><path fill="#cbccce" d="M1054.378 400.002l173.202-100-115.471 200.012z"/><path fill="#e6e7e8" d="M823.451 200l57.734-99.996h-115.47L707.979 200z"/><linearGradient gradientTransform="matrix(0 1 1 0 1358.12 1624.127)" y2="-582.284" x2="-1460.527" y1="-464.92" x1="-1545.639" gradientUnits="userSpaceOnUse" id="B"><stop offset=".36" stop-color="#fff"/><stop offset=".625" stop-color="#fcfcfc"/><stop offset=".748" stop-color="#f4f4f5"/><stop offset=".841" stop-color="#e9eaeb"/><stop offset=".92" stop-color="#dadbdc"/><stop offset=".988" stop-color="#c6c8ca"/><stop offset="1" stop-color="#c2c4c6"/></linearGradient><path fill="url(#B)" d="M765.715 100.004L823.451 200l57.734-99.996z"/><linearGradient y2="191.32" x2="933.352" y1="324.321" x1="1011.352" gradientUnits="userSpaceOnUse" id="C"><stop offset=".36" stop-color="#fff"/><stop offset=".625" stop-color="#fcfcfc"/><stop offset=".748" stop-color="#f4f4f5"/><stop offset=".841" stop-color="#e9eaeb"/><stop offset=".92" stop-color="#dadbdc"/><stop offset=".988" stop-color="#c6c8ca"/><stop offset="1" stop-color="#c2c4c6"/></linearGradient><path fill="url(#C)" d="M996.643 300.012l57.735-99.995H938.906l-57.734 99.995z"/><path fill="#ededee" opacity=".6" d="M246.163 1399.998l57.687-99.997-115.422-.003-57.739 100zm173.16-499.996l57.687-99.998-115.422-.002-57.738 100zm.049-799.999L477.058.005 361.636.003l-57.738 100z"/><linearGradient y2="978.477" x2="579.441" y1="1140.478" x1="674.441" gradientUnits="userSpaceOnUse" id="D"><stop offset=".163" stop-color="#fff"/><stop offset=".51" stop-color="#fcfcfc"/><stop offset=".67" stop-color="#f4f4f5"/><stop offset=".792" stop-color="#e9eaeb"/><stop offset=".895" stop-color="#dadbdc"/><stop offset=".985" stop-color="#c6c8ca"/><stop offset="1" stop-color="#c2c4c6"/></linearGradient><path fill="url(#D)" d="M650.254 1099.997l57.729-99.995H592.519l-57.736 99.995z"/><linearGradient gradientTransform="matrix(0 1 1 0 1358.12 1624.127)" y2="7.505" x2="-1228.578" y1="17.361" x1="-1136.298" gradientUnits="userSpaceOnUse" id="E"><stop offset=".36" stop-color="#fff"/><stop offset=".625" stop-color="#fcfcfc"/><stop offset=".748" stop-color="#f4f4f5"/><stop offset=".841" stop-color="#e9eaeb"/><stop offset=".92" stop-color="#dadbdc"/><stop offset=".988" stop-color="#c6c8ca"/><stop offset="1" stop-color="#c2c4c6"/></linearGradient><path fill="url(#E)" d="M1399.984 499.999v-98.624l-56.942 98.624z"/><linearGradient gradientTransform="matrix(0 1 1 0 1358.12 1624.127)" y2="-128.984" x2="-1120.014" y1="-280.397" x1="-1041.172" gradientUnits="userSpaceOnUse" id="F"><stop offset=".344" stop-color="#cbccce"/><stop offset=".379" stop-color="#d0d1d3"/><stop offset=".502" stop-color="#dcdedf"/><stop offset=".644" stop-color="#e4e5e6"/><stop offset=".85" stop-color="#e6e7e8"/></linearGradient><path fill="url(#F)" d="M1112.113 500.014l57.738 100.002 57.729-100.002z"/><linearGradient y2="890.955" x2="742.738" y1="978.288" x1="819.404" gradientUnits="userSpaceOnUse" id="G"><stop offset=".158" stop-color="#fff"/><stop offset=".343" stop-color="#f8f8f8"/><stop offset=".566" stop-color="#ebeced"/><stop offset=".808" stop-color="#d7d8da"/><stop offset="1" stop-color="#c2c4c6"/></linearGradient><path fill="url(#G)" d="M823.457 1000.018l57.732-100H765.72l-57.737 100z"/><linearGradient gradientTransform="matrix(0 1 1 0 1358.12 1624.127)" y2="-707.868" x2="-1408.568" y1="-707.868" x1="-1503.314" gradientUnits="userSpaceOnUse" id="H"><stop offset="0" stop-color="#dadbdc"/><stop offset=".365" stop-color="#d8d9db"/><stop offset=".534" stop-color="#d2d3d5"/><stop offset=".662" stop-color="#c7c9cb"/><stop offset=".77" stop-color="#b8babc"/><stop offset=".864" stop-color="#a5a7aa"/><stop offset=".919" stop-color="#97999c"/></linearGradient><path fill="url(#H)" d="M592.515 200h115.472l-57.736-99.996z"/><path fill="#fff" d="M1285.311 600.016h114.673v-1.384l-56.936-98.618h-115.472z"/><path fill="#dadbdc" d="M1399.984 598.632v-98.618h-56.936zm-172.404-298.62l-57.735-99.995h-115.467l57.735 100.001z"/><linearGradient gradientTransform="matrix(0 1 1 0 1358.12 1624.127)" y2="-255.992" x2="-1451.298" y1="-359.028" x1="-1575.836" gradientUnits="userSpaceOnUse" id="I"><stop offset="0" stop-color="#ededee"/><stop offset=".383" stop-color="#ebeced"/><stop offset=".559" stop-color="#e5e6e7"/><stop offset=".694" stop-color="#dadbdd"/><stop offset=".807" stop-color="#cbcdce"/><stop offset=".906" stop-color="#b7b9bc"/><stop offset=".995" stop-color="#a0a2a5"/><stop offset="1" stop-color="#9fa1a4"/></linearGradient><path fill="url(#I)" d="M1054.378 200.006l57.731-100.002H996.643z"/><path fill="#ededee" d="M881.182 99.999L823.451 0H707.979l57.736 100.004z"/><linearGradient gradientTransform="matrix(0 1 1 0 1358.12 1624.127)" y2="-584.74" x2="-1580.183" y1="-490.668" x1="-1553.306" gradientUnits="userSpaceOnUse" id="J"><stop offset="0" stop-color="#ededee"/><stop offset=".372" stop-color="#ebeced"/><stop offset=".544" stop-color="#e5e6e7"/><stop offset=".675" stop-color="#dadbdd"/><stop offset=".786" stop-color="#cbcdce"/><stop offset=".882" stop-color="#b7b9bc"/><stop offset=".969" stop-color="#a0a2a5"/><stop offset=".973" stop-color="#9fa1a4"/></linearGradient><path fill="url(#J)" d="M765.715 100.004l115.467-.005L823.451 0z"/><path fill="#cbccce" d="M1399.984 700.016v-98.618l-56.936 98.618z"/><linearGradient gradientTransform="matrix(0 1 1 0 1358.12 1624.127)" y2="-199.816" x2="-467.276" y1="-131.186" x1="-309.066" gradientUnits="userSpaceOnUse" id="K"><stop offset=".188" stop-color="#cbccce"/><stop offset=".234" stop-color="#d0d1d3"/><stop offset=".395" stop-color="#dcdedf"/><stop offset=".58" stop-color="#e4e5e6"/><stop offset=".85" stop-color="#e6e7e8"/></linearGradient><path fill="url(#K)" opacity=".3" d="M1285.311 1199.999h-115.466l-57.736 100.002z"/><linearGradient gradientTransform="matrix(0 1 1 0 1358.12 1624.127)" y2="-439.759" x2="-1456.708" y1="-486.353" x1="-1554.374" gradientUnits="userSpaceOnUse" id="L"><stop offset="0" stop-color="#ededee"/><stop offset=".383" stop-color="#ebeced"/><stop offset=".559" stop-color="#e5e6e7"/><stop offset=".694" stop-color="#dadbdd"/><stop offset=".807" stop-color="#cbcdce"/><stop offset=".906" stop-color="#b7b9bc"/><stop offset=".995" stop-color="#a0a2a5"/><stop offset="1" stop-color="#9fa1a4"/></linearGradient><path fill="url(#L)" d="M996.652 100.001H881.188l-57.737 100.005z"/><path fill="#e6e7e8" d="M707.989 1200.015h115.468l-57.732-99.996z"/><path fill="#dadbdc" d="M881.189 300.018l-57.732-100.001H707.983l57.737 100.001z"/><linearGradient gradientTransform="matrix(0 1 1 0 1358.12 1624.127)" y2="-463.346" x2="-1331.267" y1="-599.532" x1="-1389.505" gradientUnits="userSpaceOnUse" id="M"><stop offset=".188" stop-color="#cbccce"/><stop offset=".225" stop-color="#d0d1d3"/><stop offset=".351" stop-color="#dcdedf"/><stop offset=".497" stop-color="#e4e5e6"/><stop offset=".71" stop-color="#e6e7e8"/></linearGradient><path fill="url(#M)" d="M765.72 300.018h115.469l-57.732-100.001z"/><path fill="#fff" d="M823.451 400.002l57.731-100H765.715l-57.736 100z"/><linearGradient y2="9.792" x2="1123.319" y1="69.789" x1="1235.813" gradientUnits="userSpaceOnUse" id="N"><stop offset=".043" stop-color="#b1b3b6"/><stop offset=".276" stop-color="#afb1b4"/><stop offset=".443" stop-color="#a8aaac"/><stop offset=".589" stop-color="#9b9da0"/><stop offset=".723" stop-color="#8a8c8f"/><stop offset=".849" stop-color="#757779"/><stop offset=".861" stop-color="#737577"/></linearGradient><path fill="url(#N)" d="M1112.109 100.001L1285.311 0h-115.466z"/><path fill="#cbccce" d="M765.72 300.018l-57.737-100.001-57.732 100.001 57.732 100z"/><path fill="#ededee" d="M1054.378 400.013l-57.735-100.001H881.172l57.734 100.001z"/><path fill="#b1b3b6" d="M938.906 400.013l-57.734-99.995-57.732 99.995 57.732 100.001z"/><linearGradient y2="447.52" x2="881.174" y1="289.166" x1="881.174" gradientUnits="userSpaceOnUse" id="O"><stop offset=".043" stop-color="#b1b3b6"/><stop offset=".276" stop-color="#afb1b4"/><stop offset=".443" stop-color="#a8aaac"/><stop offset=".589" stop-color="#9b9da0"/><stop offset=".723" stop-color="#8a8c8f"/><stop offset=".849" stop-color="#757779"/><stop offset=".861" stop-color="#737577"/></linearGradient><path fill="url(#O)" d="M823.44 400.013h115.466l-57.734-99.995z"/><linearGradient y2="737.845" x2="707.966" y1="598.15" x1="707.966" gradientUnits="userSpaceOnUse" id="P"><stop offset=".043" stop-color="#b1b3b6"/><stop offset=".276" stop-color="#afb1b4"/><stop offset=".443" stop-color="#a8aaac"/><stop offset=".589" stop-color="#9b9da0"/><stop offset=".723" stop-color="#8a8c8f"/><stop offset=".849" stop-color="#757779"/><stop offset=".861" stop-color="#737577"/></linearGradient><path fill="url(#P)" d="M650.232 700.011h115.467l-57.735-99.995z"/><path fill="#ededee" d="M419.336 700.016l57.736-100H361.607l-57.736 100z"/><path fill="#e0e1e2" d="M361.607 600.016l57.729 100 57.736-100z"/><path fill="#ededee" opacity=".5" d="M303.853 700.016l-57.734-100h115.469zM188.385 600l-57.734-100H246.12zm0 400.012l-57.734-100H246.12z"/><linearGradient gradientTransform="matrix(0 1 1 0 1358.12 1624.127)" y2="-361.481" x2="-1131.428" y1="-361.481" x1="-958.649" gradientUnits="userSpaceOnUse" id="Q"><stop offset=".242" stop-color="#cbccce"/><stop offset=".284" stop-color="#d0d1d3"/><stop offset=".431" stop-color="#dcdedf"/><stop offset=".602" stop-color="#e4e5e6"/><stop offset=".85" stop-color="#e6e7e8"/></linearGradient><path fill="url(#Q)" d="M938.906 600h115.466l-57.735-100.001z"/><path fill="#e6e7e8" d="M1112.119 100.004L1169.854.003h-115.47z"/><path fill="#cbccce" d="M1112.119 100.004V.003h-57.735zM996.643 1300.001h115.466l-57.731-100.002zM650.256 900.002l57.733-100.001H592.524zm230.936 399.999l-57.735-100.002-57.732 100.002L823.457 1400z"/><linearGradient y2="1266.994" x2="823.459" y1="1412.609" x1="823.459" gradientUnits="userSpaceOnUse" id="R"><stop offset="0" stop-color="#dadbdc"/><stop offset=".365" stop-color="#d8d9db"/><stop offset=".534" stop-color="#d2d3d5"/><stop offset=".662" stop-color="#c7c9cb"/><stop offset=".77" stop-color="#b8babc"/><stop offset=".864" stop-color="#a5a7aa"/><stop offset=".919" stop-color="#97999c"/></linearGradient><path fill="url(#R)" d="M823.457 1400l57.735-99.999H765.725z"/><path fill="#cbccce" d="M534.788 1099.997l-57.73-99.999-57.738 99.999 57.738 100.002z"/><path fill="#ededee" d="M303.85 1099.997h115.466l-57.736-99.999z"/><path fill="#cbccce" d="M592.519 1400h115.464l-57.732-99.999z"/><linearGradient y2="1316.716" x2="707.966" y1="1217.619" x1="707.966" gradientUnits="userSpaceOnUse" id="S"><stop offset=".043" stop-color="#b1b3b6"/><stop offset=".303" stop-color="#afb1b4"/><stop offset=".49" stop-color="#a8aaac"/><stop offset=".653" stop-color="#9b9da0"/><stop offset=".803" stop-color="#8a8c8f"/><stop offset=".943" stop-color="#757779"/><stop offset=".957" stop-color="#737577"/></linearGradient><path fill="url(#S)" d="M650.232 1300.001h115.467l-57.733-100.002z"/><path fill="#cbccce" d="M765.725 900.002h115.467l-57.735-100.001z"/><linearGradient gradientTransform="matrix(0 1 1 0 1358.12 1624.127)" y2="-718.241" x2="-784.132" y1="-837.401" x1="-719.624" gradientUnits="userSpaceOnUse" id="T"><stop offset="0" stop-color="#ededee"/><stop offset=".383" stop-color="#ebeced"/><stop offset=".559" stop-color="#e5e6e7"/><stop offset=".694" stop-color="#dadbdd"/><stop offset=".807" stop-color="#cbcdce"/><stop offset=".906" stop-color="#b7b9bc"/><stop offset=".995" stop-color="#a0a2a5"/><stop offset="1" stop-color="#9fa1a4"/></linearGradient><path fill="url(#T)" d="M534.767 900.018h115.465L592.5 800.017z"/><linearGradient gradientTransform="matrix(0 1 1 0 1358.12 1624.127)" y2="-304.734" x2="-289.267" y1="-408.662" x1="-232.824" gradientUnits="userSpaceOnUse" id="U"><stop offset="0" stop-color="#dadbdc"/><stop offset=".365" stop-color="#d8d9db"/><stop offset=".534" stop-color="#d2d3d5"/><stop offset=".662" stop-color="#c7c9cb"/><stop offset=".77" stop-color="#b8babc"/><stop offset=".864" stop-color="#a5a7aa"/><stop offset=".919" stop-color="#97999c"/></linearGradient><path fill="url(#U)" d="M938.906 1400h115.466l-57.729-99.999z"/><linearGradient gradientTransform="matrix(0 1 1 0 1358.12 1624.127)" y2="-882.049" x2="-289.268" y1="-985.977" x1="-232.824" gradientUnits="userSpaceOnUse" id="V"><stop offset="0" stop-color="#dadbdc"/><stop offset=".365" stop-color="#d8d9db"/><stop offset=".534" stop-color="#d2d3d5"/><stop offset=".662" stop-color="#c7c9cb"/><stop offset=".77" stop-color="#b8babc"/><stop offset=".864" stop-color="#a5a7aa"/><stop offset=".919" stop-color="#97999c"/></linearGradient><path fill="url(#V)" d="M361.591 1400h115.467l-57.738-99.999z"/><path fill="#dadbdc" d="M1112.109 500.014l-57.731-100.001-57.735 100.001 57.735 100.002z"/><linearGradient y2="451.158" x2="1054.376" y1="599.65" x1="1054.376" gradientUnits="userSpaceOnUse" id="W"><stop offset=".043" stop-color="#b1b3b6"/><stop offset=".276" stop-color="#afb1b4"/><stop offset=".443" stop-color="#a8aaac"/><stop offset=".589" stop-color="#9b9da0"/><stop offset=".723" stop-color="#8a8c8f"/><stop offset=".849" stop-color="#757779"/><stop offset=".861" stop-color="#737577"/></linearGradient><path fill="url(#W)" d="M1054.378 600.016l57.731-100.002H996.643z"/><linearGradient y2="1434.045" x2="248.672" y1="1253.3" x1="429.417" gradientUnits="userSpaceOnUse" id="X"><stop offset="0" stop-color="#fff"/><stop offset=".236" stop-color="#f7f8f8"/><stop offset=".539" stop-color="#eaebeb"/><stop offset=".877" stop-color="#d4d5d7"/><stop offset=".995" stop-color="#cbccce"/></linearGradient><path fill="url(#X)" d="M303.85 1300.001h115.466l-57.731 99.994z"/><path fill="#dadbdc" opacity=".4" d="M707.989 400.002l-57.731-100-57.734 100 57.734 99.997z"/><linearGradient gradientTransform="matrix(0 1 1 0 1358.12 1624.127)" y2="-134.422" x2="-707.164" y1="-168.967" x1="-799.716" gradientUnits="userSpaceOnUse" id="Y"><stop offset="0" stop-color="#dadbdc"/><stop offset=".365" stop-color="#d8d9db"/><stop offset=".534" stop-color="#d2d3d5"/><stop offset=".662" stop-color="#c7c9cb"/><stop offset=".77" stop-color="#b8babc"/><stop offset=".864" stop-color="#a5a7aa"/><stop offset=".919" stop-color="#97999c"/></linearGradient><path fill="url(#Y)" d="M1112.109 900.018l173.202-100.001-57.735 100.001z"/><linearGradient gradientTransform="matrix(0 1 1 0 1358.12 1624.127)" y2="-134.422" x2="-707.164" y1="-168.967" x1="-799.716" gradientUnits="userSpaceOnUse" id="Z"><stop offset="0" stop-color="#dadbdc"/><stop offset=".365" stop-color="#d8d9db"/><stop offset=".534" stop-color="#d2d3d5"/><stop offset=".662" stop-color="#c7c9cb"/><stop offset=".77" stop-color="#b8babc"/><stop offset=".864" stop-color="#a5a7aa"/><stop offset=".919" stop-color="#97999c"/></linearGradient><path fill="url(#Z)" d="M1112.109 900.018l173.202-100.001-57.735 100.001z"/><linearGradient gradientTransform="matrix(0 1 1 0 1358.12 1624.127)" y2="-192.153" x2="-807.165" y1="-226.698" x1="-899.717" gradientUnits="userSpaceOnUse" id="aa"><stop offset="0" stop-color="#dadbdc"/><stop offset=".365" stop-color="#d8d9db"/><stop offset=".534" stop-color="#d2d3d5"/><stop offset=".662" stop-color="#c7c9cb"/><stop offset=".77" stop-color="#b8babc"/><stop offset=".864" stop-color="#a5a7aa"/><stop offset=".919" stop-color="#97999c"/></linearGradient><path fill="url(#aa)" d="M1054.378 800.017l173.202-100.001-57.735 100.001z"/><linearGradient gradientTransform="matrix(0 1 1 0 1358.12 1624.127)" y2="-365.358" x2="-707.164" y1="-399.903" x1="-799.717" gradientUnits="userSpaceOnUse" id="ab"><stop offset="0" stop-color="#dadbdc"/><stop offset=".365" stop-color="#d8d9db"/><stop offset=".534" stop-color="#d2d3d5"/><stop offset=".662" stop-color="#c7c9cb"/><stop offset=".77" stop-color="#b8babc"/><stop offset=".864" stop-color="#a5a7aa"/><stop offset=".919" stop-color="#97999c"/></linearGradient><path fill="url(#ab)" d="M881.174 900.018l173.198-100.001-57.729 100.001z"/><linearGradient gradientTransform="matrix(0 1 1 0 1358.12 1624.127)" y2="-576.03" x2="-733.276" y1="-649.364" x1="-799.47" gradientUnits="userSpaceOnUse" id="ac"><stop offset="0" stop-color="#dadbdc"/><stop offset=".365" stop-color="#d8d9db"/><stop offset=".534" stop-color="#d2d3d5"/><stop offset=".662" stop-color="#c7c9cb"/><stop offset=".77" stop-color="#b8babc"/><stop offset=".864" stop-color="#a5a7aa"/><stop offset=".919" stop-color="#97999c"/></linearGradient><path fill="url(#ac)" d="M650.251 900.018l173.2-100.001-57.731 100.001z"/><linearGradient gradientTransform="matrix(0 1 1 0 1358.12 1624.127)" y2="-76.686" x2="-1007.168" y1="-111.23" x1="-1099.718" gradientUnits="userSpaceOnUse" id="ad"><stop offset="0" stop-color="#dadbdc"/><stop offset=".365" stop-color="#d8d9db"/><stop offset=".534" stop-color="#d2d3d5"/><stop offset=".662" stop-color="#c7c9cb"/><stop offset=".77" stop-color="#b8babc"/><stop offset=".864" stop-color="#a5a7aa"/><stop offset=".919" stop-color="#97999c"/></linearGradient><path fill="url(#ad)" d="M1169.845 600.016l173.203-100.002-57.737 100.002z"/><path fill="#cbccce" d="M881.185 100.004L1054.384.003l-57.732 100.001zm288.66 500.012l-173.202 100 57.735-100z"/><linearGradient y2="776.156" x2="1154.938" y1="656.163" x1="1087.441" gradientUnits="userSpaceOnUse" id="ae"><stop offset=".043" stop-color="#b1b3b6"/><stop offset=".303" stop-color="#afb1b4"/><stop offset=".49" stop-color="#a8aaac"/><stop offset=".653" stop-color="#9b9da0"/><stop offset=".803" stop-color="#8a8c8f"/><stop offset=".943" stop-color="#757779"/><stop offset=".957" stop-color="#737577"/></linearGradient><path fill="url(#ae)" d="M996.643 700.016h230.933l-173.204 100.001z"/><linearGradient gradientTransform="matrix(0 1 1 0 1358.12 1624.127)" y2="-246.01" x2="-1036.467" y1="-246.01" x1="-841.435" gradientUnits="userSpaceOnUse" id="af"><stop offset=".344" stop-color="#cbccce"/><stop offset=".379" stop-color="#d0d1d3"/><stop offset=".502" stop-color="#dcdedf"/><stop offset=".644" stop-color="#e4e5e6"/><stop offset=".85" stop-color="#e6e7e8"/></linearGradient><path fill="url(#af)" d="M996.643 700.016l173.202-100 57.731 100z"/><path fill="#ededee" d="M1227.576 300.002l172.408-99.544v-1.83l-56.936-98.627L1169.845 200z"/><path fill="#dadbdc" d="M823.444 800.036l-57.735-99.997 173.197-99.998 57.735 99.997z"/><linearGradient y2="747.57" x2="959.589" y1="673.57" x1="837.59" gradientUnits="userSpaceOnUse" id="ag"><stop offset=".194" stop-color="#bcbec0"/><stop offset=".968" stop-color="#bcbec0" stop-opacity="0"/></linearGradient><path fill="url(#ag)" d="M823.457 800.017l115.466-200.001 57.735 100z"/><linearGradient gradientTransform="matrix(0 1 1 0 1358.12 1624.127)" y2="-581.455" x2="-1115.557" y1="-531.282" x1="-1279.512" gradientUnits="userSpaceOnUse" id="ah"><stop offset=".188" stop-color="#cbccce"/><stop offset=".234" stop-color="#d0d1d3"/><stop offset=".395" stop-color="#dcdedf"/><stop offset=".58" stop-color="#e4e5e6"/><stop offset=".85" stop-color="#e6e7e8"/></linearGradient><path fill="url(#ah)" d="M707.979 400.002h115.48l57.733 100.002z"/><linearGradient gradientTransform="matrix(0 1 1 0 1358.12 1624.127)" y2="-328.279" x2="-617.93" y1="-405.332" x1="-400.215" gradientUnits="userSpaceOnUse" id="ai"><stop offset=".188" stop-color="#cbccce"/><stop offset=".234" stop-color="#d0d1d3"/><stop offset=".395" stop-color="#dcdedf"/><stop offset=".58" stop-color="#e4e5e6"/><stop offset=".85" stop-color="#e6e7e8"/></linearGradient><path fill="url(#ai)" d="M1054.372 1199.999l57.737-100.002-173.203-99.999-57.729 99.999z"/><linearGradient gradientTransform="matrix(0 1 1 0 1358.12 1624.127)" y2="-765.617" x2="-405.072" y1="-765.617" x1="-578.511" gradientUnits="userSpaceOnUse" id="aj"><stop offset=".36" stop-color="#fff"/><stop offset=".625" stop-color="#fcfcfc"/><stop offset=".748" stop-color="#f4f4f5"/><stop offset=".841" stop-color="#e9eaeb"/><stop offset=".92" stop-color="#dadbdc"/><stop offset=".988" stop-color="#c6c8ca"/><stop offset="1" stop-color="#c2c4c6"/></linearGradient><path fill="url(#aj)" d="M477.036 1200.015h230.932l-173.201-100.002z"/><path fill="#e6e7e8" d="M477.052 1199.999l173.196 100.002 57.735-100.002z"/><linearGradient y2="1124.73" x2="978.877" y1="1254.73" x1="909.877" gradientUnits="userSpaceOnUse" id="ak"><stop offset="0" stop-color="#dadbdc"/><stop offset=".365" stop-color="#d8d9db"/><stop offset=".534" stop-color="#d2d3d5"/><stop offset=".662" stop-color="#c7c9cb"/><stop offset=".77" stop-color="#b8babc"/><stop offset=".864" stop-color="#a5a7aa"/><stop offset=".919" stop-color="#97999c"/></linearGradient><path fill="url(#ak)" d="M823.451 1200.015h230.933l-173.202-100.002z"/><linearGradient y2="827.349" x2="938.918" y1="744.055" x1="938.918" gradientUnits="userSpaceOnUse" id="al"><stop offset="0" stop-color="#fff"/><stop offset=".236" stop-color="#f7f8f8"/><stop offset=".539" stop-color="#eaebeb"/><stop offset=".877" stop-color="#d4d5d7"/><stop offset=".995" stop-color="#cbccce"/></linearGradient><path fill="url(#al)" d="M1054.378 800.017H823.457l173.186-100.001z"/><path fill="#cbccce" d="M1343.036 100.001l-115.468-.002-57.723 100.018z"/><linearGradient gradientTransform="matrix(0 1 1 0 1358.12 1624.127)" y2="-836.578" x2="-295.559" y1="-906.46" x1="-199.696" gradientUnits="userSpaceOnUse" id="am"><stop offset="0" stop-color="#ededee"/><stop offset=".383" stop-color="#ebeced"/><stop offset=".559" stop-color="#e5e6e7"/><stop offset=".694" stop-color="#dadbdd"/><stop offset=".807" stop-color="#cbcdce"/><stop offset=".906" stop-color="#b7b9bc"/><stop offset=".995" stop-color="#a0a2a5"/><stop offset="1" stop-color="#9fa1a4"/></linearGradient><path fill="url(#am)" d="M477.058 1400l-57.742-99.999L592.519 1400z"/></g></svg>